<?xml version="1.0" encoding="UTF-8" standalone="no"?>
<!-- Created with Inkscape (http://www.inkscape.org/) -->

<svg
   xmlns:dc="http://purl.org/dc/elements/1.1/"
   xmlns:cc="http://creativecommons.org/ns#"
   xmlns:rdf="http://www.w3.org/1999/02/22-rdf-syntax-ns#"
   xmlns:svg="http://www.w3.org/2000/svg"
   xmlns="http://www.w3.org/2000/svg"
   xmlns:sodipodi="http://sodipodi.sourceforge.net/DTD/sodipodi-0.dtd"
   xmlns:inkscape="http://www.inkscape.org/namespaces/inkscape"
   width="48pt"
   height="48pt"
   viewBox="0 0 16.933334 16.933333"
   version="1.1"
   id="svg979"
   inkscape:version="0.92.4 (5da689c313, 2019-01-14)"
   sodipodi:docname="8 - Nail Polish.svg"
   inkscape:export-filename="E:\TR Design Studio Creative\Project Design\TR Creative Design\Icon Design\Project Hiring\Icon Icons\Project - 001\002 - Beauty And Fashion\Send\2 - Solid\8 - Nail Polish.png"
   inkscape:export-xdpi="768"
   inkscape:export-ydpi="768">
  <defs
     id="defs973">
    <pattern
       y="0"
       x="0"
       height="6"
       width="6"
       patternUnits="userSpaceOnUse"
       id="EMFhbasepattern" />
    <pattern
       y="0"
       x="0"
       height="6"
       width="6"
       patternUnits="userSpaceOnUse"
       id="EMFhbasepattern-5" />
    <pattern
       y="0"
       x="0"
       height="6"
       width="6"
       patternUnits="userSpaceOnUse"
       id="EMFhbasepattern-9" />
    <pattern
       y="0"
       x="0"
       height="6"
       width="6"
       patternUnits="userSpaceOnUse"
       id="EMFhbasepattern-6" />
    <pattern
       y="0"
       x="0"
       height="6"
       width="6"
       patternUnits="userSpaceOnUse"
       id="EMFhbasepattern-0" />
  </defs>
  <sodipodi:namedview
     id="base"
     pagecolor="#ffffff"
     bordercolor="#666666"
     borderopacity="1.0"
     inkscape:pageopacity="0.0"
     inkscape:pageshadow="2"
     inkscape:zoom="8.546875"
     inkscape:cx="32"
     inkscape:cy="32"
     inkscape:document-units="pt"
     inkscape:current-layer="layer1"
     showgrid="false"
     units="pt"
     inkscape:window-width="1366"
     inkscape:window-height="716"
     inkscape:window-x="-8"
     inkscape:window-y="-8"
     inkscape:window-maximized="1"
     inkscape:snap-bbox="true"
     inkscape:bbox-nodes="true"
     inkscape:snap-nodes="false"
     showguides="false">
    <inkscape:grid
       type="xygrid"
       id="grid1526" />
    <sodipodi:guide
       position="0.97013909,15.963209"
       orientation="56.666615,0"
       id="guide1528"
       inkscape:locked="false" />
    <sodipodi:guide
       position="0.97013909,0.97016731"
       orientation="0,56.666667"
       id="guide1530"
       inkscape:locked="false" />
    <sodipodi:guide
       position="15.963195,0.97016731"
       orientation="-56.666615,0"
       id="guide1532"
       inkscape:locked="false" />
    <sodipodi:guide
       position="15.963195,15.963209"
       orientation="0,-56.666667"
       id="guide1534"
       inkscape:locked="false" />
  </sodipodi:namedview>
  <metadata
     id="metadata976">
    <rdf:RDF>
      <cc:Work
         rdf:about="">
        <dc:format>image/svg+xml</dc:format>
        <dc:type
           rdf:resource="http://purl.org/dc/dcmitype/StillImage" />
        <dc:title></dc:title>
      </cc:Work>
    </rdf:RDF>
  </metadata>
  <g
     inkscape:label="Layer 1"
     inkscape:groupmode="layer"
     id="layer1"
     transform="translate(0,-280.06668)">
    <path
       id="path891"
       d="m 10.430375,281.56807 c -0.5197937,0 -0.9356281,0.41583 -0.9356281,0.93563 v 3.11877 c 0,0.38983 0.3118758,0.70171 0.7277101,0.70171 h 2.936832 c 0.415834,0 0.72771,-0.31188 0.72771,-0.70171 v -3.11877 c 0,-0.5198 -0.415834,-0.93563 -0.935627,-0.93563 z m 1.871255,1.2475 c 0.181928,0 0.337866,0.15594 0.337866,0.33788 v 1.29947 c 0,0.44183 -0.675732,0.44183 -0.649741,0 v -1.29947 c 0,-0.18194 0.129948,-0.31188 0.311875,-0.33788 z m -8.3946597,1.63735 c -0.5977622,0 -1.0135968,0.12996 -1.299483,0.28589 v 3.61257 c 0,0.28588 0.1039586,0.57176 0.2598966,0.77968 0.1039586,-0.44182 0.2858862,-0.72771 0.4418242,-0.93562 0.07797,-0.078 0.1039586,-0.12995 0.155938,-0.20792 -0.025989,-0.026 -0.051979,-0.026 -0.07797,-0.0519 -0.1559379,-0.078 -0.3378655,-0.20792 -0.4158345,-0.44183 -0.07797,-0.20792 0.07797,-0.44183 0.2858863,-0.44183 0.1559378,0 0.2858862,0.078 0.3118758,0.23391 0.025989,0.0519 0.077968,0.078 0.1299484,0.104 0,-0.078 0.025989,-0.18193 0.025989,-0.31188 -0.025989,-0.18193 0.1039586,-0.31187 0.2858863,-0.33786 0.1819275,-0.026 0.363855,0.12995 0.363855,0.33786 0,0.54579 -0.1559379,0.90965 -0.3378654,1.19553 0.025989,0 0.051979,-0.026 0.051979,-0.026 0.07797,-0.026 0.1299482,-0.078 0.2079172,-0.078 v 0 c 0.311876,-0.026 0.4678137,0.36385 0.233907,0.57178 -0.1559381,0.12995 -0.311876,0.18192 -0.5197931,0.23391 -0.1299484,0.026 -0.2858863,0.0519 -0.4418243,0.026 -0.051979,0.12994 -0.1039586,0.31188 -0.1039586,0.57177 0.1299483,0.0519 0.2858863,0.078 0.4418242,0.078 0.7277103,0 1.2994828,-0.57177 1.2994828,-1.29948 v -3.61257 c -0.3118744,-0.15601 -0.7277091,-0.28597 -1.2994817,-0.28597 z m 1.9492246,2.36506 v 1.5334 c 0,1.06558 -0.8836485,1.94922 -1.9492246,1.94922 -1.0915657,0 -1.9492244,-0.88364 -1.9492244,-1.94922 v -1.5334 c -0.5977623,0.41584 -0.98760711,1.09157 -0.98760711,1.84527 v 6.47143 c 0,0.0519 0,0.104 0.0259903,0.15594 0,0 0,0 0,0 0,0.026 0,0.026 0.025989,0.026 0,0 0,0 0,0.026 0,0 0,0.026 0.02599,0.026 0,0.026 0,0.026 0,0.026 0,0 0.025989,0 0.025989,0 0,0 0,0 0,0 0,0.026 0,0.026 0.025989,0.026 0,0 0,0 0,0 0,0.026 0,0.026 0.02599,0.026 0,0 0,0 0,0 0,0 0.025989,0.026 0.025989,0.026 v 0 c 0.051979,0.026 0.1299484,0.026 0.2079173,0.026 h 5.1459533 c 0.1819276,0 0.311876,-0.15594 0.311876,-0.33786 v -6.49741 c 0,-0.75371 -0.389845,-1.42944 -0.9616174,-1.84528 z m 4.2363151,0.15594 c -0.1559385,0 -0.2598971,0.12995 -0.2598971,0.2599 v 0.46782 H 9.4687567 c -0.545782,0 -1.0915652,0.20791 -1.4814105,0.59776 -0.3898442,0.36385 -0.6497408,0.90963 -0.5457824,1.48141 l 0.7017202,3.7425 c 0.07797,0.51979 0.2858868,0.98761 0.6237528,1.37746 0.3638551,0.36385 0.8316687,0.59776 1.4034412,0.59776 h 3.066779 c 0.545785,0 1.039587,-0.23391 1.377453,-0.59776 0.337865,-0.38985 0.545782,-0.85767 0.649742,-1.37746 l 0.675731,-3.7425 c 0.103963,-0.57178 -0.155938,-1.11756 -0.545783,-1.48141 -0.389846,-0.38985 -0.935628,-0.59776 -1.481411,-0.59776 h -0.363855 v -0.46782 c 0,-0.12995 -0.103963,-0.2599 -0.233907,-0.2599 z m 0.181927,2.02719 h 2.832873 c 0.389845,0 0.7537,0.15594 1.039587,0.38985 0.259896,0.25989 0.441823,0.64974 0.363855,1.06558 l -0.441825,2.39105 c -0.05198,0.33786 -0.207917,0.67572 -0.441824,0.93562 -0.233907,0.23391 -0.571773,0.41583 -0.961618,0.41583 h -1.949224 c -0.389845,0 -0.7277102,-0.18192 -0.9616176,-0.41583 -0.2339062,-0.2599 -0.3898441,-0.59776 -0.4418234,-0.93562 l -0.4418246,-2.39105 c -0.07797,-0.41584 0.1039635,-0.80569 0.3898441,-1.06558 0.2598977,-0.23391 0.6237527,-0.38985 1.0135975,-0.38985 z m 0,0.64974 c -0.207918,0 -0.4418241,0.078 -0.5717729,0.23391 -0.1559379,0.12996 -0.2079172,0.28588 -0.1819269,0.46782 l 0.4418234,2.36505 c 0.025994,0.25991 0.1299494,0.46782 0.2598964,0.62376 0.129949,0.12995 0.285887,0.20791 0.493804,0.20791 h 1.949224 c 0.207917,0 0.363855,-0.078 0.493804,-0.20791 0.129949,-0.15594 0.233907,-0.36385 0.285887,-0.62376 l 0.415834,-2.36505 c 0.02599,-0.18194 -0.02599,-0.33786 -0.181928,-0.46782 -0.129948,-0.15594 -0.363855,-0.23391 -0.571772,-0.23391 z m -7.5370013,1.01361 c 0.051979,0 0.1299482,0 0.1819276,0.0519 0.2339068,0.12995 0.5717725,0.23391 0.987607,0.23391 0.3898449,0 0.7537002,-0.104 0.9616174,-0.23391 0.3898448,-0.2339 0.7277106,0.33788 0.3378654,0.54579 -0.3378654,0.20792 -0.8056792,0.33786 -1.2994828,0.33786 -0.5197932,0 -0.9616173,-0.12994 -1.3254726,-0.33786 -0.2858863,-0.15594 -0.1819276,-0.59776 0.155938,-0.59776 z"
       style="fill:#000000;fill-opacity:1;fill-rule:nonzero;stroke:none;stroke-width:0.26458335"
       inkscape:connector-curvature="0" />
  </g>
</svg>
