<svg width="296" height="296" viewBox="0 0 296 296" fill="none" xmlns="http://www.w3.org/2000/svg">
<g clip-path="url(#clip0_1_8)">
<path d="M147.91 295.82C229.696 295.82 295.82 229.696 295.82 147.91C295.82 66.124 229.696 0 147.91 0C66.124 0 0 66.124 0 147.91C0 229.696 66.124 295.82 147.91 295.82ZM147.91 17.401C219.255 17.401 278.419 76.565 278.419 147.91C278.419 219.255 219.255 278.419 147.91 278.419C76.565 278.419 17.401 219.255 17.401 147.91C17.401 76.565 76.565 17.401 147.91 17.401Z" fill="black"/>
<path d="M132.249 184.452C128.769 187.932 128.769 193.153 132.249 196.633C135.729 200.113 140.95 200.113 144.43 196.633L177.492 163.571C186.193 154.87 186.193 139.209 177.492 130.509L144.43 97.447C142.69 95.707 139.21 95.707 137.47 95.707C135.73 95.707 133.99 95.707 132.25 97.447C128.77 100.927 128.77 106.148 132.25 109.628L165.312 142.69C167.052 146.17 167.052 149.65 165.312 151.391L132.249 184.452Z" fill="black"/>
</g>
<defs>
<clipPath id="clip0_1_8">
<rect width="295.82" height="295.82" fill="white" transform="matrix(-1 0 0 -1 295.82 295.82)"/>
</clipPath>
</defs>
</svg>
