<?xml version="1.0" encoding="utf-8"?>
<!-- Generator: Adobe Illustrator 23.0.0, SVG Export Plug-In . SVG Version: 6.00 Build 0)  -->
<svg version="1.1" id="Capa_1" xmlns="http://www.w3.org/2000/svg" xmlns:xlink="http://www.w3.org/1999/xlink" x="0px" y="0px"
	 width="801.535px" height="476.749px" viewBox="0 0 801.535 476.749" enable-background="new 0 0 801.535 476.749"
	 xml:space="preserve">
<g>
	<path d="M801.535,466.392c-0.595,0.78-1.408,1.475-1.75,2.354c-2.402,6.178-6.966,8.02-13.385,8.004
		c-17.189-0.044-34.377-0.07-51.566-0.084c-17.055-0.014-34.111-0.017-51.166-0.016c-17.189,0.001-34.377,0.007-51.566,0.01
		c-17.117,0.003-34.234,0.002-51.352,0.003c-17.114,0.001-34.228,0.001-51.341,0.002s-34.228,0.002-51.341,0.003
		c-17.114,0.001-34.228,0.001-51.341,0.001c-17.114,0-34.228-0.001-51.341-0.002c-17.114-0.001-34.228-0.004-51.341-0.007
		c-17.114-0.004-34.228-0.008-51.341-0.014c-4.195-0.002-8.39-0.003-12.586-0.005c-24.805-0.01-49.61-0.437-74.414-0.411
		c-20.897,0.022-41.794,0.065-62.691,0.119c-20.897,0.054-41.794,0.118-62.691,0.181c-10.449,0.031-20.897,0.062-31.346,0.092
		c-5.085,0.014-10.199,0.19-15.28,0.022c-2.93-0.097-6-0.613-8.487-2.26c-6.111-4.045-4.97-12.675-5.036-18.962
		c-0.111-10.502-0.183-21.004-0.167-31.507c0.008-5.184,0.036-10.369,0.092-15.553c0.054-5.047,0.003-10.124,0.258-15.165
		c0.149-2.947,0.777-6.017,2.562-8.435c1.663-2.253,4.175-3.563,6.876-4.137c1.625-0.345,3.298-0.448,4.956-0.418
		c18.569,0.34,37.142,0.407,55.713,0.425c18.592,0.018,37.181,0.003,55.773-0.161c2.658-0.023,5.317-0.044,7.976-0.059
		c2.045-0.011,4.173,0.154,6.207-0.114c1.712-0.225,2.962-1.085,3.807-2.594c0.886-1.583,2.554-2.908,4.433-3.043
		c4.468-0.32,8.99-0.17,13.47,0.112c1.102,0.069,2.488,0.509,3.303,1.284c0.874,0.832,1.001,2.183,1.95,3.043
		c1.684,1.526,4.152,1.264,6.251,1.263c33.164-0.016,66.327,0.002,99.491,0.002c53.483,0,106.965-0.043,160.448,0.064
		c2.191,0.004,4.439-0.318,6.201-1.722c2.158-1.719,3.364-4.567,4.734-6.893c3.275-5.563,6.529-11.139,9.705-16.76
		c6.398-11.326,12.48-22.847,17.722-34.759c2.952-6.707,5.635-13.534,7.956-20.486c3.7-11.086,6.881-22.513,7.317-34.258
		c0.218-5.871-0.252-11.79-1.575-17.52c-1.174-5.082-3.34-9.864-6.082-14.286c-3.07-4.951-6.8-9.449-10.58-13.867
		c-11.522-13.467-26.839-20.765-43.355-26.134c-34.517-11.22-70.006-16.367-106.175-16.602c-23.952-0.155-47.97-0.166-71.851,1.392
		c-22.603,1.475-39.589,14.155-53.394,31.563c-5.347,6.743-8.657,14.738-11.04,22.944c-2.45,8.437-4.322,17.073-6.364,25.616
		c-1.305,5.459-2.565,10.928-3.753,16.413c-0.432,1.993-1.581,3.554-3.373,4.524c-1.792,0.97-3.831,1.325-5.671,2.185
		c-0.877,0.41-1.881,0.905-2.514,1.664c-0.7,0.839-0.594,2.202-0.63,3.235c-0.103,2.979,0.277,5.948,0.593,8.904
		c0.046,0.432,1.987,0.891,3.068,0.941c3.943,0.185,7.887,0.487,11.837,0.373c1.584-0.046,2.97-0.109,4.394-0.849
		c1.486-0.772,2.841-1.772,4.326-2.548c0,3.9,0,7.616,0,11.843c-7.196-5.77-14.856-2.611-22.015-3.086
		c-0.94-0.062-1.789,2.34-1.985,2.984c-0.263,0.863-0.213,1.753-0.226,2.646c-0.018,1.251-0.033,2.501-0.044,3.752
		c-0.043,4.74-0.041,9.48-0.035,14.22c0.006,4.619-0.06,9.243,0.008,13.861c0.049,3.366,0.286,6.764-0.198,10.111
		c-0.573,3.963-2.375,7.465-5.552,9.961c-0.162-0.414-0.261-1.72-0.961-2.295c-4.093-3.364-4.805-8.285-4.677-13.288
		c0.056-2.171,0.238-4.352,0.175-6.524c-0.028-0.971-0.079-2.195-1.009-2.756c-1.366-0.824-3.628-0.418-5.118-0.353
		c-2.437,0.107-4.856-0.394-7.293-0.278c-1.199,0.057-2.398,0.271-3.494,0.773c-0.58,0.266-1.124,0.607-1.619,1.009
		c-0.271,0.22-0.525,0.459-0.766,0.711c-0.213,0.222-0.478,0.723-0.734,0.864c-0.561,0.308-1.543-0.054-2.111-0.224
		c-0.383-0.115-0.852-0.226-1.18-0.459c-0.423-0.301-0.363-0.515-0.412-1.078c-0.308-3.572-0.356-7.167-0.111-10.744
		c0.038-0.55,3.078-1.703,3.506-1.294c5.015,4.787,11.135,1.99,16.702,2.689c3.183,0.4,3.862-1.474,3.837-4.302
		c-0.104-11.821-0.146-23.645,0.01-35.465c0.033-2.503-0.887-4.109-3.434-4.547c-2.198-0.378-4.472-0.335-6.629-0.962
		c-3.641-1.058-3.631-5.116-3.966-8.289c-2.413-22.847-5.027-45.698-6.448-68.616c-0.869-14.015-1.062-28.063-0.921-42.101
		c0.142-14.106,0.677-28.185,1.607-42.261c0.525-7.944,1.129-15.883,1.714-23.823c0.106-1.443,0.098-3.106-0.74-4.356
		c-0.764-1.141-2.097-1.612-3.401-1.81c-4.544-0.691-9.277-0.082-13.675-1.739c-1.738-0.655-3.307-1.997-3.811-3.857
		c-0.432-1.597,1.041-2.883,2.335-3.561c0.778-0.408,1.517-0.424,2.383-0.469c1.334-0.07,2.668-0.124,4.003-0.15
		c2.475-0.048,4.955,0,7.421,0.234c1.68,0.16,3.882,0.872,5.536,0.219c1.432-0.565,1.645-2.323,1.75-3.662
		c0.497-6.3,1.966-12.542,2.191-18.838c0.094-2.619,0.739-5.343,2.608-7.281c1.93-2,4.435-2.421,7.027-2.97
		c2.418-0.512,4.29-1.856,4.804-4.363c0.402-1.957,0.602-5.468-1.053-6.938c-1.082-0.961-2.646-0.785-3.98-0.822
		c-2.37-0.065-4.684-0.657-7.024-0.978c-0.048-0.781-0.096-1.562-0.144-2.343c1.934-0.444,3.81-1.357,5.822-1.399
		c1.42-0.03,2.818,0.271,4.189-0.271c2.296-0.908,2.399-3.642,2.295-5.755c-0.214-4.348-0.238-8.704-0.16-13.056
		c0.037-2.081,0-4.201,0.182-6.275c0.176-2.001,1.115-3.828,1.672-5.734c0.685,0.006,1.371,0.012,2.056,0.018
		c0.525,1.813,1.396,3.549,1.634,5.437c0.254,2.02,0.156,4.137,0.187,6.171c0.062,4.052,0.046,8.105-0.05,12.156
		c-0.049,2.104-0.663,5.515,1.577,6.805c1.096,0.631,2.369,0.517,3.579,0.518c1.941,0,3.791,0.671,5.683,1.01
		c0.081,0.672,0.163,1.343,0.244,2.015c-1.929,0.565-3.809,1.336-5.797,1.682c-1.095,0.19-2.226,0.096-3.313,0.322
		c-2.519,0.522-1.821,3.27-1.994,5.217c-0.173,1.941-0.365,4.17,1.529,5.349c1.254,0.781,2.822,0.842,4.212,1.253
		c1.436,0.424,2.819,1.024,4.105,1.793c2.964,1.771,5.306,4.383,7.186,7.249c6.884,10.491,16.483,18.79,26.604,26.048
		c10.698,7.671,22.416,13.802,34.56,18.842c6.866,2.849,13.869,5.36,20.939,7.654c3.586,1.163,7.375,1.526,11.122,1.698
		c3.919,0.179,7.845,0.247,11.766,0.389c8.273,0.298,16.551,0.466,24.829,0.498c16.605,0.065,33.214-0.418,49.785-1.491
		c9.39-0.608,18.767-1.405,28.124-2.396c36.994-3.921,73.443-10.795,109.565-19.544c7.341-1.778,7.315-1.86,7.313-9.646
		c-0.005-16.665-0.046-33.331,0.035-49.995c0.012-2.435-0.736-6.706,2.368-7.612c1.463-0.427,3.34-0.142,4.168,1.252
		c0.762,1.282,0.668,2.97,0.625,4.403c-0.156,5.266-0.023,10.548-0.011,15.816c0.013,5.777,0.02,11.554,0.012,17.331
		c-0.009,6.573-0.037,13.147-0.097,19.72c-0.039,4.27,0.998,5.756,5.718,5.409c21.57-1.588,42.565,0.696,62.098,10.933
		c11.227,5.884,19.607,14.87,26.304,25.336c2.336,3.65,4.031,7.655,5.804,11.595c0.867,1.926,1.703,3.912,2.764,5.742
		c0.798,1.378,2.341,2.904,4.004,3.09c4.04,0.451,8.197,0.187,12.256,0.176c1.062-0.003,2.237-0.166,2.959-1.031
		c0.718-0.862,0.789-2.116,0.773-3.185c-0.125-8.497,0.384-17.026-0.16-25.49c-0.746-11.609,7.252-17.379,18.946-14.78
		c1.41,0.313,2.804,0.704,5.201,1.311c0-6.292,0.012-12.016-0.003-17.74c-0.018-7.14,2.851-10.531,9.953-10.95
		c3.922-0.231,7.853-0.287,11.78-0.206c2.965,0.061,6.135-0.074,8.981,0.898c4.586,1.567,6.028,5.96,6.028,10.446
		c0.004,35.48,0.002,70.961,0.002,106.796c1.86,0.296,3.554,0.498,5.444,0.502c1.917,0.004,3.833,0.009,5.749,0.013
		c3.833,0.009,7.666,0.018,11.499,0.022c7.666,0.007,15.331-0.01,22.996-0.095c3.83-0.043,7.529-0.074,10.779-2.408
		c6.272-4.505,14.356-4.16,19.522,1.311c4.833,5.118,5.067,13.384,0.531,18.732c-4.853,5.722-12.952,6.483-19.443,2.441
		c-2.6-1.619-5.97-2.72-9.015-2.782c-13.68-0.278-27.363,0-41.044-0.196c-1.818-0.026-4.203-0.309-5.734,0.928
		c-1.463,1.183-1.42,3.368-1.394,5.068c0.107,6.803,0.146,13.606,0.146,20.41c0,7.729-0.042,15.459-0.053,23.188
		c-0.008,5.654-2.299,9.03-7.916,9.59c-3.781,0.376-7.58,0.574-11.379,0.582c-3.449,0.007-7.185,0.139-10.575-0.572
		c-4.957-1.04-6.827-5.459-6.83-10.135c-0.004-5.952-0.001-11.904-0.001-18.102c-5.832,0.906-12.276,2.993-17.917,0.165
		c-4.453-2.232-6.12-7.041-6.136-11.764c-0.032-8.999-0.096-18,0.07-26.996c0.041-2.199-0.526-4.184-2.937-4.602
		c-1.324-0.23-2.727-0.089-4.065-0.079c-1.035,0.007-2.071,0.006-3.107,0.037c-1.075,0.031-2.549-0.038-3.466,0.643
		c-0.744,0.552-0.814,1.553-0.843,2.406c-0.077,2.223,0.129,4.458,0.128,6.682c-0.021,32.323,0.401,64.661-0.469,96.963
		c-0.668,24.786-2.895,49.536-4.757,74.277c-0.369,4.907,1.175,5.909,5.692,5.899c13.512-0.03,27.025-0.043,40.537-0.05
		s27.025-0.006,40.537-0.008c13.512-0.002,27.025-0.008,40.537-0.027c13.512-0.019,27.025-0.051,40.537-0.106
		c8.387-0.034,19.199-1.282,24.41,6.894c0.654,1.025,1.189,2.123,1.634,3.253C801.535,415.725,801.535,441.058,801.535,466.392z"/>
</g>
</svg>
